Coordinates
version=1
nRows=11
nColumns=36
inDegrees=yes

Units are S.I. units (second, meters, Newtons, ...)
If the header above contains a line with 'inDegrees', this indicates whether rotational values are in degrees (yes) or radians (no).

endheader
time	pelvis_tilt	pelvis_list	pelvis_rotation	pelvis_tx	pelvis_ty	pelvis_tz	hip_flexion_r	hip_adduction_r	hip_rotation_r	knee_angle_r	knee_angle_r_beta	ankle_angle_r	subtalar_angle_r	mtp_angle_r	hip_flexion_l	hip_adduction_l	hip_rotation_l	knee_angle_l	knee_angle_l_beta	ankle_angle_l	subtalar_angle_l	mtp_angle_l	lumbar_extension	lumbar_bending	lumbar_rotation	arm_flex_r	arm_add_r	arm_rot_r	elbow_flex_r	pro_sup_r	arm_flex_l	arm_add_l	arm_rot_l	elbow_flex_l	pro_sup_l
      0.93333330	     -6.83233384	      2.98319547	     -8.57456951	      0.72712847	      1.28947949	      0.13301533	      8.74373257	     -1.73874029	      4.35380237	     10.21499939	      0.17828537	     16.28531176	     -4.65524070	     -7.49978321	     10.82742839	     -2.71016654	     -7.34830613	     16.41707531	      0.28653202	     12.40137931	      1.76871572	     -7.49978321	     -6.61507492	     -3.47345319	     -0.70777188	      2.04374649	    -21.29279391	     29.31169434	     26.94415171	     69.66291338	    -16.24681350	    -14.38225105	      4.83228542	     37.40258189	     71.31452540
      0.95000000	     -7.43866732	      2.88072509	     -8.62856529	      0.71571239	      1.28849421	      0.13839931	     10.58613993	     -1.41463931	      4.85462763	     12.40723274	      0.21654706	     16.98732958	     -4.59255447	     -7.49978574	     13.24433141	     -3.25243534	     -7.13925471	     19.49257910	      0.34020969	     13.32145924	      1.27539920	     -7.49978574	     -7.94346134	     -3.36591403	     -0.67822118	      4.25670502	    -20.82638355	     29.29507358	     27.21421174	     69.80163593	    -14.96386810	    -14.38242054	      4.99762499	     37.07920915	     71.55211646
      0.96666670	     -8.89613039	      3.10727015	     -8.80509587	      0.73019907	      1.27952058	      0.13347175	     13.73912629	     -1.33304269	      5.04981827	     15.45126656	      0.26967548	     18.13343491	     -3.96767118	     -7.49980862	     16.78758808	     -3.53861726	     -7.00915047	     23.29216405	      0.40652495	     14.57636706	      0.90677784	     -7.49980862	     -7.89094313	     -3.32055250	     -0.77977856	      5.72576780	    -20.28870124	     29.19534380	     26.50498790	     69.74579434	    -14.07101467	    -14.03258450	      5.20382543	     35.42286011	     71.65880037
      0.98333330	     -9.85936197	      3.20006174	     -8.90543678	      0.73103745	      1.26885700	      0.14010858	     16.69453455	     -1.06057604	      5.51828307	     19.16725679	      0.33453174	     19.69825499	     -3.41906139	     -7.49983376	     20.47685977	     -4.00208836	     -6.73741158	     28.23836443	      0.49285243	     15.92095139	      0.32730239	     -7.49983376	     -8.84247913	     -3.52213577	     -0.34291263	      7.16230784	    -19.54126921	     28.54769186	     25.89216582	     69.62735685	    -12.65186217	    -13.85111087	      5.12107402	     34.05554722	     71.73829709
      1.00000000	    -10.96920552	      3.46152760	     -8.95278626	      0.73190900	      1.25268577	      0.13317144	     20.01958001	     -1.04391498	      5.66140852	     23.34835505	      0.40750567	     21.77748505	     -2.64472892	     -7.49989654	     24.46922601	     -4.24724289	     -6.68445958	     33.65843246	      0.58745047	     17.44292139	     -0.60471911	     -7.49989654	     -9.68992144	     -3.71680379	      0.46346040	      8.24820324	    -18.97239190	     25.04946941	     26.15491885	     73.70743004	    -10.39126498	    -13.78256246	      5.13613723	     32.98961956	     76.80921492
      1.01666670	    -11.95205124	      3.76087095	     -8.96719725	      0.73954343	      1.23746872	      0.13118983	     22.98024931	     -1.20215012	      5.45652479	     27.36290264	      0.47757274	     24.27161972	     -1.35514650	     -7.49991171	     28.15887052	     -4.36751353	     -6.68444231	     38.96215261	      0.68001785	     19.24776764	     -1.43200174	     -7.49991171	    -10.34251053	     -3.82546611	      0.63365764	      9.49929257	    -18.80078806	     24.25463458	     27.25177658	     73.04223697	     -8.53468245	    -13.72591172	      4.56647376	     33.43241634	     76.02761321
      1.03333330	    -12.41190155	      3.86195739	     -8.81585472	      0.75310116	      1.23403065	      0.13210345	     24.61263672	     -1.43324762	      4.83807837	     30.33741898	      0.52948785	     27.03992660	      0.33756929	     -7.49991796	     30.52362733	     -4.38072408	     -6.63791225	     43.17985726	      0.75363068	     21.21775562	     -1.47758155	     -7.49991796	    -11.22184273	     -3.77190976	      0.87473960	     11.42917086	    -18.55496259	     23.58966943	     26.87622777	     72.65064444	     -5.84401755	    -13.55884766	      4.70214125	     32.15759008	     75.79112712
      1.05000000	    -13.21213179	      3.90776166	     -8.55666990	      0.75372765	      1.21963251	      0.13192945	     26.51172491	     -1.44256292	      4.55758742	     33.19677004	      0.57939294	     29.52957346	      1.29371491	     -7.49992695	     33.11541634	     -4.34966851	     -6.43462267	     46.84906445	      0.81767043	     22.99734913	     -1.30725016	     -7.49992695	    -11.47954365	     -3.77639959	      1.84758166	     13.35874156	    -18.61740859	     22.63313335	     26.17949168	     72.42607169	     -1.88254683	    -14.02950778	      7.48987793	     31.10341462	     76.73588404
      1.06666670	    -14.17082993	      4.10958159	     -8.27369458	      0.76051169	      1.20930075	      0.12839628	     28.85019960	     -1.55159818	      4.49061145	     36.65955109	      0.63982987	     32.31875651	      2.07159606	     -7.49993795	     35.56449425	     -4.29658831	     -6.55538807	     50.43490878	      0.88025522	     24.80700721	     -0.66691242	     -7.49993795	    -11.86617338	     -4.03942203	      2.80409360	     14.75749428	    -19.16974533	     20.95842581	     27.95858420	     71.79060634	      1.64877691	    -14.50707150	      9.92642621	     31.46974276	     77.19513942
      1.08333330	    -15.32485819	      4.29785719	     -7.99635542	      0.76133204	      1.19183729	      0.12777353	     31.59842431	     -1.60861889	      4.45132986	     40.40039581	      0.70511993	     35.06937499	      2.78767328	     -7.49994322	     38.12477606	     -4.30487891	     -6.55009927	     54.05773886	      0.94348553	     26.64888624	     -0.03032866	     -7.49994322	    -11.85114942	     -4.03658642	      2.30147084	     18.38012376	    -19.73459696	     20.20985786	     29.86987028	     71.23649206	      5.41501368	    -15.32177573	     10.39431507	     34.03862965	     76.79521014
      1.10000000	    -16.47592479	      4.51328862	     -7.86092590	      0.77457466	      1.17931368	      0.12906744	     34.13091373	     -1.67278524	      4.19537178	     43.68559264	      0.76245743	     37.56886047	      3.64476404	     -7.49994692	     40.12932147	     -4.09816768	     -6.30577255	     56.45081678	      0.98525262	     29.05527651	      0.59675382	     -7.49994692	    -10.92609674	     -4.06363208	      2.27809262	     22.38536722	    -20.29035833	     19.74089847	     32.01350816	     71.00709353	      8.40132406	    -16.53038608	     11.46835855	     37.03327199	     76.93224566
